<svg xmlns="http://www.w3.org/2000/svg" version="1.1" xmlns:xlink="http://www.w3.org/1999/xlink" xmlns:svgjs="http://svgjs.dev/svgjs" width="512" height="512"><svg width="512" height="512" viewBox="0 0 512 512" fill="none" xmlns="http://www.w3.org/2000/svg">
<g clip-path="url(#clip0_1_2)">
<rect width="512" height="512" fill="#111111"></rect>
<path d="M213.2 402C191.067 402 174.667 394.4 164 379.2C153.333 364 150 343.6 154 318L163.2 258.4C165.867 241.067 171.2 226.133 179.2 213.6C187.467 201.067 197.6 191.333 209.6 184.4C221.6 177.467 234.933 174 249.6 174C267.733 174 281.2 179.2 290 189.6C299.067 199.733 302.133 213.733 299.2 231.6L290 220H301.2L308.4 167.6L318.4 106H368.4L322 398H272.8L279.6 356H268.8L281.6 344.4C278.667 362.267 271.067 376.4 258.8 386.8C246.533 396.933 231.333 402 213.2 402ZM238 358.8C250.533 358.8 260.933 355.067 269.2 347.6C277.467 339.867 282.667 329.2 284.8 315.6L293.6 260.4C296 246.8 294.133 236.267 288 228.8C281.867 221.067 272.533 217.2 260 217.2C247.2 217.2 236.667 220.933 228.4 228.4C220.4 235.867 215.333 246.533 213.2 260.4L204.4 315.6C202 329.467 203.733 340.133 209.6 347.6C215.467 355.067 224.933 358.8 238 358.8Z" fill="#FF0000"></path>
<path d="M230.2 412C208.067 412 191.667 404.4 181 389.2C170.333 374 167 353.6 171 328L180.2 268.4C182.867 251.067 188.2 236.133 196.2 223.6C204.467 211.067 214.6 201.333 226.6 194.4C238.6 187.467 251.933 184 266.6 184C284.733 184 298.2 189.2 307 199.6C316.067 209.733 319.133 223.733 316.2 241.6L307 230H318.2L325.4 177.6L335.4 116H385.4L339 408H289.8L296.6 366H285.8L298.6 354.4C295.667 372.267 288.067 386.4 275.8 396.8C263.533 406.933 248.333 412 230.2 412ZM255 368.8C267.533 368.8 277.933 365.067 286.2 357.6C294.467 349.867 299.667 339.2 301.8 325.6L310.6 270.4C313 256.8 311.133 246.267 305 238.8C298.867 231.067 289.533 227.2 277 227.2C264.2 227.2 253.667 230.933 245.4 238.4C237.4 245.867 232.333 256.533 230.2 270.4L221.4 325.6C219 339.467 220.733 350.133 226.6 357.6C232.467 365.067 241.933 368.8 255 368.8Z" fill="#0000FF"></path>
<path d="M228.2 401C206.067 401 189.667 393.4 179 378.2C168.333 363 165 342.6 169 317L178.2 257.4C180.867 240.067 186.2 225.133 194.2 212.6C202.467 200.067 212.6 190.333 224.6 183.4C236.6 176.467 249.933 173 264.6 173C282.733 173 296.2 178.2 305 188.6C314.067 198.733 317.133 212.733 314.2 230.6L305 219H316.2L323.4 166.6L333.4 105H383.4L337 397H287.8L294.6 355H283.8L296.6 343.4C293.667 361.267 286.067 375.4 273.8 385.8C261.533 395.933 246.333 401 228.2 401ZM253 357.8C265.533 357.8 275.933 354.067 284.2 346.6C292.467 338.867 297.667 328.2 299.8 314.6L308.6 259.4C311 245.8 309.133 235.267 303 227.8C296.867 220.067 287.533 216.2 275 216.2C262.2 216.2 251.667 219.933 243.4 227.4C235.4 234.867 230.333 245.533 228.2 259.4L219.4 314.6C217 328.467 218.733 339.133 224.6 346.6C230.467 354.067 239.933 357.8 253 357.8Z" fill="#00FF00"></path>
<path d="M219.2 404C197.067 404 180.667 396.4 170 381.2C159.333 366 156 345.6 160 320L169.2 260.4C171.867 243.067 177.2 228.133 185.2 215.6C193.467 203.067 203.6 193.333 215.6 186.4C227.6 179.467 240.933 176 255.6 176C273.733 176 287.2 181.2 296 191.6C305.067 201.733 308.133 215.733 305.2 233.6L296 222H307.2L314.4 169.6L324.4 108H374.4L328 400H278.8L285.6 358H274.8L287.6 346.4C284.667 364.267 277.067 378.4 264.8 388.8C252.533 398.933 237.333 404 219.2 404ZM244 360.8C256.533 360.8 266.933 357.067 275.2 349.6C283.467 341.867 288.667 331.2 290.8 317.6L299.6 262.4C302 248.8 300.133 238.267 294 230.8C287.867 223.067 278.533 219.2 266 219.2C253.2 219.2 242.667 222.933 234.4 230.4C226.4 237.867 221.333 248.533 219.2 262.4L210.4 317.6C208 331.467 209.733 342.133 215.6 349.6C221.467 357.067 230.933 360.8 244 360.8Z" fill="white"></path>
</g>
<defs>
<clipPath id="SvgjsClipPath1004">
<rect width="512" height="512" fill="white"></rect>
</clipPath>
</defs>
</svg><style>@media (prefers-color-scheme: light) { :root { filter: none; } }
@media (prefers-color-scheme: dark) { :root { filter: none; } }
</style></svg>